<?xml version="1.0" encoding="UTF-8" standalone="no"?>
<svg
   width="1080"
   zoomAndPan="magnify"
   viewBox="0 0 810 809.999993"
   height="1080"
   preserveAspectRatio="xMidYMid meet"
   version="1.0"
   id="svg32962"
   sodipodi:docname="srck1.svg"
   inkscape:export-filename="Logo 2 temno rdeÄa.png"
   inkscape:export-xdpi="96"
   inkscape:export-ydpi="96"
   inkscape:version="1.2.1 (9c6d41e410, 2022-07-14)"
   xmlns:inkscape="http://www.inkscape.org/namespaces/inkscape"
   xmlns:sodipodi="http://sodipodi.sourceforge.net/DTD/sodipodi-0.dtd"
   xmlns="http://www.w3.org/2000/svg"
   xmlns:svg="http://www.w3.org/2000/svg">
  <sodipodi:namedview
     id="namedview32964"
     pagecolor="#ffffff"
     bordercolor="#000000"
     borderopacity="0.25"
     inkscape:showpageshadow="2"
     inkscape:pageopacity="0"
     inkscape:pagecheckerboard="0"
     inkscape:deskcolor="#d1d1d1"
     showgrid="false"
     inkscape:zoom="0.6"
     inkscape:cx="531.66667"
     inkscape:cy="502.5"
     inkscape:window-width="950"
     inkscape:window-height="1047"
     inkscape:window-x="0"
     inkscape:window-y="0"
     inkscape:window-maximized="1"
     inkscape:current-layer="svg32962" />
  <defs
     id="defs32808">
    <g
       id="g32761" />
    <clipPath
       id="fb6385c25c">
      <path
         d="M 559 293 L 647 293 L 647 424 L 559 424 Z M 559 293 "
         clip-rule="nonzero"
         id="path32763" />
    </clipPath>
    <clipPath
       id="bafad74fd1">
      <path
         d="M 506.265625 199.871094 L 763.273438 274.957031 L 693.238281 514.683594 L 436.230469 439.601562 Z M 506.265625 199.871094 "
         clip-rule="nonzero"
         id="path32766" />
    </clipPath>
    <clipPath
       id="f33de2f0cb">
      <path
         d="M 506.265625 199.871094 L 763.273438 274.957031 L 693.238281 514.683594 L 436.230469 439.601562 Z M 506.265625 199.871094 "
         clip-rule="nonzero"
         id="path32769" />
    </clipPath>
    <clipPath
       id="09e51dcfc3">
      <path
         d="M 484 216 L 748 216 L 748 477 L 484 477 Z M 484 216 "
         clip-rule="nonzero"
         id="path32772" />
    </clipPath>
    <clipPath
       id="7edeaa4368">
      <path
         d="M 506.265625 199.871094 L 763.273438 274.957031 L 693.238281 514.683594 L 436.230469 439.601562 Z M 506.265625 199.871094 "
         clip-rule="nonzero"
         id="path32775" />
    </clipPath>
    <clipPath
       id="c0ee131fb2">
      <path
         d="M 506.265625 199.871094 L 763.273438 274.957031 L 693.238281 514.683594 L 436.230469 439.601562 Z M 506.265625 199.871094 "
         clip-rule="nonzero"
         id="path32778" />
    </clipPath>
    <clipPath
       id="689cc9b347">
      <path
         d="M 542 252 L 569 252 L 569 311 L 542 311 Z M 542 252 "
         clip-rule="nonzero"
         id="path32781" />
    </clipPath>
    <clipPath
       id="7443aba24f">
      <path
         d="M 506.265625 199.871094 L 763.273438 274.957031 L 693.238281 514.683594 L 436.230469 439.601562 Z M 506.265625 199.871094 "
         clip-rule="nonzero"
         id="path32784" />
    </clipPath>
    <clipPath
       id="3ce23fdb42">
      <path
         d="M 506.265625 199.871094 L 763.273438 274.957031 L 693.238281 514.683594 L 436.230469 439.601562 Z M 506.265625 199.871094 "
         clip-rule="nonzero"
         id="path32787" />
    </clipPath>
    <clipPath
       id="701f35f4a9">
      <path
         d="M 526 268 L 585 268 L 585 295 L 526 295 Z M 526 268 "
         clip-rule="nonzero"
         id="path32790" />
    </clipPath>
    <clipPath
       id="bab7af9e71">
      <path
         d="M 506.265625 199.871094 L 763.273438 274.957031 L 693.238281 514.683594 L 436.230469 439.601562 Z M 506.265625 199.871094 "
         clip-rule="nonzero"
         id="path32793" />
    </clipPath>
    <clipPath
       id="e0be8debfb">
      <path
         d="M 506.265625 199.871094 L 763.273438 274.957031 L 693.238281 514.683594 L 436.230469 439.601562 Z M 506.265625 199.871094 "
         clip-rule="nonzero"
         id="path32796" />
    </clipPath>
    <clipPath
       id="6bba3d930c">
      <path
         d="M 83 405 L 301 405 L 301 618 L 83 618 Z M 83 405 "
         clip-rule="nonzero"
         id="path32799" />
    </clipPath>
    <clipPath
       id="23f6fdba4b">
      <path
         d="M 51.359375 453.101562 L 282.34375 370.683594 L 355.6875 576.242188 L 124.699219 658.65625 Z M 51.359375 453.101562 "
         clip-rule="nonzero"
         id="path32802" />
    </clipPath>
    <clipPath
       id="0a13b9fe2e">
      <path
         d="M 51.359375 453.101562 L 282.34375 370.683594 L 355.6875 576.242188 L 124.699219 658.65625 Z M 51.359375 453.101562 "
         clip-rule="nonzero"
         id="path32805" />
    </clipPath>
  </defs>
  <rect
     x="-81"
     width="972"
     fill="#ffffff"
     y="-80.999999"
     height="971.999992"
     fill-opacity="1"
     id="rect32810"
     style="fill:#ffffff;fill-opacity:0" />
  <rect
     x="-81"
     width="972"
     fill="#ffffff"
     y="-80.999999"
     height="971.999992"
     fill-opacity="1"
     id="rect32812"
     style="fill:#ffffff;fill-opacity:0" />
  <g
     clip-path="url(#fb6385c25c)"
     id="g32820"
     transform="matrix(2.850422,-0.85955624,0.83303705,2.9411633,-1602.7315,-148.62829)">
    <g
       clip-path="url(#bafad74fd1)"
       id="g32818">
      <g
         clip-path="url(#f33de2f0cb)"
         id="g32816">
        <path
           fill="#bf2a00"
           d="m 643.72266,304.54687 c 2.60156,-2.18359 3.10156,-6.1289 0.91406,-8.73046 -2.14063,-2.75391 -6.08594,-3.25391 -8.83594,-1.10938 l -73.58984,58.67188 c -2.75391,2.14062 -3.25391,6.08593 -1.10938,8.83984 1.30469,1.69141 3.3711,2.45703 5.35547,2.38281 l 50.45703,0.34375 -51.94922,47.32422 c -2.60156,2.18359 -2.79687,6.21875 -0.41797,8.71094 2.33594,2.64844 6.21875,2.80078 8.86329,0.46484 l 63.48828,-57.69922 c 1.49609,-1.19922 2.32812,-2.92187 2.40234,-4.85937 0.0195,-3.4336 -2.72266,-6.35938 -6.30469,-6.42578 l -49.16406,-0.28907 z m 0,0"
           fill-opacity="1"
           fill-rule="nonzero"
           id="path32814" />
      </g>
    </g>
  </g>
  <g
     clip-path="url(#09e51dcfc3)"
     id="g32828"
     transform="matrix(2.850422,-0.85955624,0.83303705,2.9411633,-1602.7315,-148.62829)">
    <g
       clip-path="url(#7edeaa4368)"
       id="g32826">
      <g
         clip-path="url(#c0ee131fb2)"
         id="g32824">
        <path
           fill="#bf2a00"
           d="m 624.1875,273.96875 c 9.51953,-8.50781 18.68359,-14.66797 28.58203,-18.32031 13.03906,-4.85938 26.69531,-5.125 43.42969,-0.23828 18.39062,5.375 33.25,17.24218 42.16015,32.11718 8.86329,15.02344 11.96875,32.94532 6.90625,50.28516 -8.76562,29.99609 -33.375,54.875 -65.78515,77.31641 -31.53906,21.70703 -70.66016,41.36718 -109.88672,60.83203 -3.07422,1.55468 -6.79688,0.30468 -8.35547,-2.76953 l -0.10547,-0.19532 c -22.32422,-37.28125 -44.79687,-74.60547 -59.53906,-109.83593 -15.23047,-36.35547 -22.42578,-70.52735 -13.66406,-100.52735 5.0664,-17.33594 17.33593,-30.76953 32.89453,-38.66015 15.51172,-7.73829 34.27344,-9.78516 52.8125,-4.36719 16.58594,4.84375 28.10156,12.46484 36.47265,23.58203 6.37891,8.40625 10.78516,18.53125 14.07813,30.78125 z m 32.85156,-6.60156 c -10.44531,3.82422 -20.58594,11.65625 -31.54687,22.85547 -0.95703,1.02734 -2.125,1.66796 -3.50782,1.91796 -3.34765,0.82422 -6.65625,-1.28906 -7.43359,-4.78906 -3.31641,-15.53125 -7.49609,-27.55078 -14.49609,-36.6289 -6.59375,-8.80079 -16.07032,-15.00391 -29.9375,-19.05469 -15.37891,-4.49219 -30.92188,-2.81641 -43.75391,3.57812 -12.44141,6.1836 -22.32031,17.03907 -26.37109,30.91016 -7.83985,26.83203 -0.99219,58.28516 13.19531,92.04687 13.87109,33.17579 34.78125,68.57032 56.03516,103.90235 36.93359,-18.33203 73.61328,-36.90625 103.30859,-57.35156 30.13281,-20.8125 52.83594,-43.63282 60.67187,-70.46485 4.05469,-13.87109 1.57032,-28.33984 -5.73437,-40.29297 -7.21875,-12.25 -19.41406,-22.03125 -34.79297,-26.52343 -14.01953,-4.09766 -25.19531,-3.92579 -35.63672,-0.10547 z m 0,0"
           fill-opacity="1"
           fill-rule="nonzero"
           id="path32822" />
      </g>
    </g>
  </g>
  <g
     clip-path="url(#689cc9b347)"
     id="g32836"
     transform="matrix(2.850422,-0.85955624,0.83303705,2.9411633,-1602.7315,-148.62829)">
    <g
       clip-path="url(#7443aba24f)"
       id="g32834">
      <g
         clip-path="url(#3ce23fdb42)"
         id="g32832">
        <path
           fill="#bf2a00"
           d="m 568.21875,260.5625 c 0.96875,-3.31641 -0.95313,-6.82031 -4.26953,-7.78906 -3.31641,-0.96875 -6.82422,0.94922 -7.79297,4.26562 l -13.29688,45.52735 c -0.96875,3.3164 0.94922,6.82421 4.26563,7.79296 3.31641,0.96875 6.82422,-0.95312 7.79297,-4.26953 z m 0,0"
           fill-opacity="1"
           fill-rule="nonzero"
           id="path32830" />
      </g>
    </g>
  </g>
  <g
     clip-path="url(#701f35f4a9)"
     id="g32844"
     transform="matrix(2.850422,-0.85955624,0.83303705,2.9411633,-1602.7315,-148.62829)">
    <g
       clip-path="url(#bab7af9e71)"
       id="g32842">
      <g
         clip-path="url(#e0be8debfb)"
         id="g32840">
        <path
           fill="#bf2a00"
           d="m 576.53906,294.24609 c 3.31641,0.96875 6.82422,-0.95312 7.79297,-4.26953 0.96875,-3.3164 -0.95312,-6.82031 -4.26953,-7.78906 l -45.52734,-13.30078 c -3.46485,-1.01563 -6.82032,0.94922 -7.78907,4.26562 -0.97265,3.31641 0.80078,6.78125 4.26563,7.79297 z m 0,0"
           fill-opacity="1"
           fill-rule="nonzero"
           id="path32838" />
      </g>
    </g>
  </g>
  <g
     fill="#bf2a00"
     fill-opacity="1"
     id="g32874">
    <g
       transform="translate(223.683122, 327.870106)"
       id="g32872">
      <g
         id="g32870" />
    </g>
  </g>
  <g
     fill="#bf2a00"
     fill-opacity="1"
     id="g32928">
    <g
       transform="translate(493.023221, 604.416066)"
       id="g32926">
      <g
         id="g32924" />
    </g>
  </g>
</svg>
