<?xml version="1.0" encoding="UTF-8" standalone="no"?>
<svg
   width="1080"
   zoomAndPan="magnify"
   viewBox="0 0 810 809.999993"
   height="1080"
   preserveAspectRatio="xMidYMid meet"
   version="1.0"
   id="svg32962"
   sodipodi:docname="srck2.svg"
   inkscape:export-filename="Logo 2 temno rdeÄa.png"
   inkscape:export-xdpi="96"
   inkscape:export-ydpi="96"
   inkscape:version="1.2.1 (9c6d41e410, 2022-07-14)"
   xmlns:inkscape="http://www.inkscape.org/namespaces/inkscape"
   xmlns:sodipodi="http://sodipodi.sourceforge.net/DTD/sodipodi-0.dtd"
   xmlns="http://www.w3.org/2000/svg"
   xmlns:svg="http://www.w3.org/2000/svg">
  <sodipodi:namedview
     id="namedview32964"
     pagecolor="#ffffff"
     bordercolor="#000000"
     borderopacity="0.25"
     inkscape:showpageshadow="2"
     inkscape:pageopacity="0"
     inkscape:pagecheckerboard="0"
     inkscape:deskcolor="#d1d1d1"
     showgrid="false"
     inkscape:zoom="0.53130912"
     inkscape:cx="86.578601"
     inkscape:cy="418.77693"
     inkscape:window-width="1910"
     inkscape:window-height="1047"
     inkscape:window-x="0"
     inkscape:window-y="0"
     inkscape:window-maximized="1"
     inkscape:current-layer="svg32962" />
  <defs
     id="defs32808">
    <g
       id="g32761" />
    <clipPath
       id="fb6385c25c">
      <path
         d="M 559 293 L 647 293 L 647 424 L 559 424 Z M 559 293 "
         clip-rule="nonzero"
         id="path32763" />
    </clipPath>
    <clipPath
       id="bafad74fd1">
      <path
         d="M 506.265625 199.871094 L 763.273438 274.957031 L 693.238281 514.683594 L 436.230469 439.601562 Z M 506.265625 199.871094 "
         clip-rule="nonzero"
         id="path32766" />
    </clipPath>
    <clipPath
       id="f33de2f0cb">
      <path
         d="M 506.265625 199.871094 L 763.273438 274.957031 L 693.238281 514.683594 L 436.230469 439.601562 Z M 506.265625 199.871094 "
         clip-rule="nonzero"
         id="path32769" />
    </clipPath>
    <clipPath
       id="09e51dcfc3">
      <path
         d="M 484 216 L 748 216 L 748 477 L 484 477 Z M 484 216 "
         clip-rule="nonzero"
         id="path32772" />
    </clipPath>
    <clipPath
       id="7edeaa4368">
      <path
         d="M 506.265625 199.871094 L 763.273438 274.957031 L 693.238281 514.683594 L 436.230469 439.601562 Z M 506.265625 199.871094 "
         clip-rule="nonzero"
         id="path32775" />
    </clipPath>
    <clipPath
       id="c0ee131fb2">
      <path
         d="M 506.265625 199.871094 L 763.273438 274.957031 L 693.238281 514.683594 L 436.230469 439.601562 Z M 506.265625 199.871094 "
         clip-rule="nonzero"
         id="path32778" />
    </clipPath>
    <clipPath
       id="689cc9b347">
      <path
         d="M 542 252 L 569 252 L 569 311 L 542 311 Z M 542 252 "
         clip-rule="nonzero"
         id="path32781" />
    </clipPath>
    <clipPath
       id="7443aba24f">
      <path
         d="M 506.265625 199.871094 L 763.273438 274.957031 L 693.238281 514.683594 L 436.230469 439.601562 Z M 506.265625 199.871094 "
         clip-rule="nonzero"
         id="path32784" />
    </clipPath>
    <clipPath
       id="3ce23fdb42">
      <path
         d="M 506.265625 199.871094 L 763.273438 274.957031 L 693.238281 514.683594 L 436.230469 439.601562 Z M 506.265625 199.871094 "
         clip-rule="nonzero"
         id="path32787" />
    </clipPath>
    <clipPath
       id="701f35f4a9">
      <path
         d="M 526 268 L 585 268 L 585 295 L 526 295 Z M 526 268 "
         clip-rule="nonzero"
         id="path32790" />
    </clipPath>
    <clipPath
       id="bab7af9e71">
      <path
         d="M 506.265625 199.871094 L 763.273438 274.957031 L 693.238281 514.683594 L 436.230469 439.601562 Z M 506.265625 199.871094 "
         clip-rule="nonzero"
         id="path32793" />
    </clipPath>
    <clipPath
       id="e0be8debfb">
      <path
         d="M 506.265625 199.871094 L 763.273438 274.957031 L 693.238281 514.683594 L 436.230469 439.601562 Z M 506.265625 199.871094 "
         clip-rule="nonzero"
         id="path32796" />
    </clipPath>
    <clipPath
       id="6bba3d930c">
      <path
         d="M 83 405 L 301 405 L 301 618 L 83 618 Z M 83 405 "
         clip-rule="nonzero"
         id="path32799" />
    </clipPath>
    <clipPath
       id="23f6fdba4b">
      <path
         d="M 51.359375 453.101562 L 282.34375 370.683594 L 355.6875 576.242188 L 124.699219 658.65625 Z M 51.359375 453.101562 "
         clip-rule="nonzero"
         id="path32802" />
    </clipPath>
    <clipPath
       id="0a13b9fe2e">
      <path
         d="M 51.359375 453.101562 L 282.34375 370.683594 L 355.6875 576.242188 L 124.699219 658.65625 Z M 51.359375 453.101562 "
         clip-rule="nonzero"
         id="path32805" />
    </clipPath>
  </defs>
  <rect
     x="-81"
     width="972"
     fill="#ffffff"
     y="-80.999999"
     height="971.999992"
     fill-opacity="1"
     id="rect32810"
     style="fill:#ffffff;fill-opacity:0" />
  <rect
     x="-81"
     width="972"
     fill="#ffffff"
     y="-80.999999"
     height="971.999992"
     fill-opacity="1"
     id="rect32812"
     style="fill:#ffffff;fill-opacity:0" />
  <g
     clip-path="url(#6bba3d930c)"
     id="g32852"
     transform="matrix(3.3308567,1.2646341,-1.1838501,3.5581492,335.50566,-1734.5143)">
    <g
       clip-path="url(#23f6fdba4b)"
       id="g32850">
      <g
         clip-path="url(#0a13b9fe2e)"
         id="g32848">
        <path
           fill="#bf2a00"
           d="M 293.92578,436.92578 C 260.23437,380.04687 185.38672,405.59766 187.41016,469.28906 148.65625,418.70703 74.539062,446.30078 84.464844,511.66016 93.46875,570.96094 240.19531,617.23437 240.19531,617.23437 c 0,0 84.29688,-128.69921 53.73047,-180.30859 z m 0,0"
           fill-opacity="1"
           fill-rule="nonzero"
           id="path32846" />
      </g>
    </g>
  </g>
  <g
     fill="#bf2a00"
     fill-opacity="1"
     id="g32874">
    <g
       transform="translate(223.683122, 327.870106)"
       id="g32872">
      <g
         id="g32870" />
    </g>
  </g>
  <g
     fill="#bf2a00"
     fill-opacity="1"
     id="g32928">
    <g
       transform="translate(493.023221, 604.416066)"
       id="g32926">
      <g
         id="g32924" />
    </g>
  </g>
</svg>
